# xmcd CD database file
#
# Track frame offsets:
#	150
#	12580
#	19371
#	31794
#	41856
#	55063
#	72338
#	91818
#	101848
#	117333
#	131292
#	153746
#	164051
#	179560
#
# Disc length: 2554 seconds
#
# Revision: 0
# Processed by: cddbd v1.5.1PL0 Copyright (c) Steve Scherf et al.
# Submitted via: CDex 1.51
#
DISCID=c409f80e
DTITLE=The McGovern Goldwater Ticket - Album of Demos
DYEAR=2005
DGENRE=Country
TTITLE0=Elanor! Elanor!
TTITLE1=Wish for a Young Wife
TTITLE2=Home on the Horizon
TTITLE3=Little Bird
TTITLE4=Alcohol
TTITLE5=Doubting Thomas
TTITLE6=Funeral Song
TTITLE7=Hope for a Young Wife
TTITLE8=Shimmer On!
TTITLE9=Battle Lines Drawn
TTITLE10=Red Monday
TTITLE11=Traveling Song
TTITLE12=Call You By Name
TTITLE13=Robert Frost Aside
EXTD=YEAR: 2005
EXTT0=
EXTT1=
EXTT2=
EXTT3=
EXTT4=
EXTT5=
EXTT6=
EXTT7=
EXTT8=
EXTT9=
EXTT10=
EXTT11=
EXTT12=
EXTT13=
PLAYORDER=
